<?xml version="1.0" standalone="no"?>
<!DOCTYPE svg PUBLIC "-//W3C//DTD SVG 20010904//EN"
 "http://www.w3.org/TR/2001/REC-SVG-20010904/DTD/svg10.dtd">
<svg version="1.0" xmlns="http://www.w3.org/2000/svg"
 width="200.000000pt" height="200.000000pt" viewBox="0 0 200.000000 200.000000"
 preserveAspectRatio="xMidYMid meet">
<metadata>
Created by potrace 1.15, written by Peter Selinger 2001-2017
</metadata>
<g transform="translate(0.000000,200.000000) scale(0.100000,-0.100000)"
fill="#000000" stroke="none">
<path d="M717 1943 c-3 -10 -9 -42 -12 -70 -4 -29 -11 -53 -16 -53 -4 0 -14
19 -20 43 -7 23 -19 49 -26 57 -13 13 -16 13 -29 -4 -8 -11 -14 -28 -14 -37 0
-32 -12 -49 -35 -49 -24 0 -35 -17 -35 -56 0 -14 -7 -27 -15 -30 -10 -4 -15
-20 -15 -44 0 -21 -5 -40 -10 -42 -36 -12 -7 -372 33 -416 10 -10 17 -26 17
-34 0 -9 7 -21 16 -29 8 -7 24 -29 34 -48 10 -20 38 -53 62 -73 23 -21 51 -45
61 -53 10 -9 17 -26 15 -38 -9 -61 -151 -66 -335 -13 -131 39 -165 43 -180 24
-13 -17 -8 -211 6 -273 7 -27 15 -62 18 -78 3 -15 13 -33 23 -40 9 -6 20 -24
24 -40 3 -15 11 -27 16 -27 6 0 10 -9 10 -21 0 -32 17 -56 44 -63 15 -4 26
-14 28 -29 2 -17 11 -23 36 -25 31 -3 32 -5 32 -46 0 -69 37 -88 69 -36 l18
31 12 -46 c10 -39 15 -46 34 -43 13 2 30 18 43 41 l21 38 17 -25 c23 -36 50
-33 76 8 22 36 113 304 125 369 4 20 11 37 16 37 15 0 30 -40 31 -83 1 -68 56
-201 112 -271 103 -128 201 -203 251 -194 18 4 25 -2 34 -29 9 -24 18 -33 36
-33 12 0 26 8 30 17 5 14 12 8 32 -30 35 -62 63 -65 63 -5 l0 42 28 -26 c75
-70 144 -60 89 14 -42 57 -42 63 4 31 24 -17 54 -34 67 -38 31 -9 40 19 15 53
-36 50 -35 51 22 31 99 -35 112 -19 38 47 l-48 43 50 -5 c60 -7 108 9 103 33
-2 13 -26 23 -83 38 -77 20 -131 42 -123 51 3 2 20 -1 39 -6 47 -14 136 -13
145 2 13 21 -35 46 -128 68 -51 12 -104 28 -118 35 -24 13 -21 14 37 15 73 0
93 6 93 30 0 14 -13 18 -74 23 -94 8 -178 39 -210 78 -65 77 -145 259 -146
329 0 29 8 43 38 71 59 56 92 78 134 90 50 13 45 28 -18 54 -27 12 -65 31 -84
43 -45 28 -110 37 -177 25 -51 -9 -54 -9 -59 14 -4 13 -24 50 -45 84 -75 116
-88 179 -55 276 31 92 -6 127 -51 48 -32 -57 -28 -29 13 91 20 57 33 111 30
119 -10 28 -36 15 -72 -35 -20 -28 -40 -47 -45 -44 -5 3 -9 34 -9 70 0 48 -4
66 -15 70 -23 9 -42 -12 -60 -67 -10 -28 -20 -47 -23 -44 -4 4 -9 32 -12 63
-4 42 -9 58 -22 60 -9 2 -19 -5 -21 -15z"/>
</g>
</svg>
