<?xml version="1.0" standalone="no"?>
<!DOCTYPE svg PUBLIC "-//W3C//DTD SVG 20010904//EN"
 "http://www.w3.org/TR/2001/REC-SVG-20010904/DTD/svg10.dtd">
<svg version="1.0" xmlns="http://www.w3.org/2000/svg"
 width="200.000000pt" height="200.000000pt" viewBox="0 0 200.000000 200.000000"
 preserveAspectRatio="xMidYMid meet">
<metadata>
Created by potrace 1.15, written by Peter Selinger 2001-2017
</metadata>
<g transform="translate(0.000000,200.000000) scale(0.100000,-0.100000)"
fill="#000000" stroke="none">
<path d="M811 1515 c-156 -35 -332 -117 -481 -222 -132 -95 -320 -277 -320
-312 0 -35 180 -210 310 -303 396 -280 767 -322 1151 -128 160 81 266 157 417
304 130 126 130 128 24 234 -199 199 -424 341 -647 408 -76 23 -113 27 -240
30 -106 3 -169 -1 -214 -11z m278 -75 c191 -24 416 -127 596 -274 101 -82 195
-170 195 -182 0 -19 -162 -166 -261 -236 -126 -89 -226 -141 -354 -185 -107
-36 -114 -37 -255 -38 -158 0 -207 9 -348 66 -151 59 -376 214 -502 343 l-44
46 54 56 c212 215 506 376 735 402 44 5 85 10 90 11 6 0 48 -4 94 -9z"/>
<path d="M880 1356 c-163 -47 -272 -161 -299 -312 -26 -145 40 -290 171 -375
83 -53 165 -73 283 -67 84 5 104 10 169 42 141 69 218 187 220 336 2 161 -93
296 -254 360 -68 28 -222 36 -290 16z m217 -300 c71 -77 15 -186 -97 -186
-106 0 -167 105 -103 180 35 42 58 51 117 46 42 -3 55 -9 83 -40z"/>
</g>
</svg>
