<?xml version="1.0" standalone="no"?>
<!DOCTYPE svg PUBLIC "-//W3C//DTD SVG 20010904//EN"
 "http://www.w3.org/TR/2001/REC-SVG-20010904/DTD/svg10.dtd">
<svg version="1.0" xmlns="http://www.w3.org/2000/svg"
 width="192.000000pt" height="192.000000pt" viewBox="0 0 192.000000 192.000000"
 preserveAspectRatio="xMidYMid meet">
<metadata>
Created by potrace 1.15, written by Peter Selinger 2001-2017
</metadata>
<g transform="translate(0.000000,192.000000) scale(0.100000,-0.100000)"
fill="#000000" stroke="none">
<path d="M320 1358 l0 -243 90 90 90 90 190 -190 190 -190 0 -297 0 -298 80 0
80 0 0 342 0 343 -207 207 -208 208 90 90 90 90 -243 0 -242 0 0 -242z"/>
<path d="M1205 1510 l90 -90 -115 -115 -115 -115 63 -62 62 -63 115 115 115
115 90 -90 90 -90 0 243 0 242 -242 0 -243 0 90 -90z"/>
</g>
</svg>
