<?xml version="1.0" standalone="no"?>
<!DOCTYPE svg PUBLIC "-//W3C//DTD SVG 20010904//EN"
 "http://www.w3.org/TR/2001/REC-SVG-20010904/DTD/svg10.dtd">
<svg version="1.0" xmlns="http://www.w3.org/2000/svg"
 width="256.000000pt" height="256.000000pt" viewBox="0 0 256.000000 256.000000"
 preserveAspectRatio="xMidYMid meet">
<metadata>
Created by potrace 1.15, written by Peter Selinger 2001-2017
</metadata>
<g transform="translate(0.000000,256.000000) scale(0.100000,-0.100000)"
fill="#000000" stroke="none">
<path d="M1236 2544 c-12 -12 -16 -37 -16 -103 l0 -88 -87 -12 c-166 -23 -368
-106 -498 -204 -221 -167 -378 -435 -416 -709 l-12 -88 -88 0 c-98 0 -119 -11
-119 -60 0 -49 21 -60 119 -60 l88 0 12 -87 c23 -166 106 -368 204 -498 167
-220 436 -378 710 -416 l87 -12 0 -88 c0 -98 11 -119 60 -119 49 0 60 21 60
119 l0 88 88 12 c273 38 528 186 704 411 100 127 185 333 209 503 l12 87 88 0
c98 0 119 11 119 60 0 49 -21 60 -119 60 l-88 0 -12 88 c-38 273 -186 528
-411 704 -127 100 -333 185 -502 209 l-88 12 0 88 c0 98 -11 119 -60 119 -16
0 -36 -7 -44 -16z m-16 -412 l0 -99 -78 -15 c-157 -31 -280 -96 -392 -208
-112 -112 -177 -235 -208 -392 l-15 -78 -99 0 -98 0 0 29 c0 79 46 233 102
346 64 126 192 272 309 352 123 85 325 159 442 162 l37 1 0 -98z m247 83 c184
-39 328 -114 464 -243 149 -140 242 -305 284 -505 8 -38 15 -82 15 -98 l0 -29
-98 0 -99 0 -15 78 c-31 157 -96 280 -208 392 -112 112 -235 177 -392 208
l-78 15 0 99 0 98 29 0 c16 0 60 -7 98 -15z m-247 -390 c0 -72 3 -88 20 -105
11 -11 29 -20 40 -20 11 0 29 9 40 20 17 17 20 33 20 106 l0 87 43 -7 c120
-19 267 -96 354 -187 86 -91 151 -221 169 -336 l7 -43 -87 0 c-73 0 -89 -3
-106 -20 -11 -11 -20 -29 -20 -40 0 -11 9 -29 20 -40 17 -17 33 -20 106 -20
l87 0 -7 -42 c-19 -121 -96 -268 -187 -355 -91 -86 -221 -151 -336 -169 l-43
-7 0 87 c0 73 -3 89 -20 106 -11 11 -29 20 -40 20 -11 0 -29 -9 -40 -20 -17
-17 -20 -33 -20 -106 l0 -87 -42 7 c-121 19 -268 96 -355 187 -86 91 -151 221
-169 337 l-7 42 87 0 c73 0 89 3 106 20 11 11 20 29 20 40 0 11 -9 29 -20 40
-17 17 -33 20 -106 20 l-87 0 7 43 c18 115 83 245 169 336 91 95 266 184 375
190 21 1 22 -2 22 -84z m-678 -683 c31 -157 96 -280 208 -392 112 -112 235
-177 392 -208 l78 -15 0 -99 0 -98 -29 0 c-79 0 -233 46 -346 102 -126 64
-272 192 -352 309 -85 124 -163 339 -163 450 l0 29 98 0 99 0 15 -78z m1688
49 c0 -78 -46 -233 -100 -341 -88 -174 -244 -331 -415 -418 -113 -56 -267
-102 -346 -102 l-29 0 0 98 0 99 78 15 c157 31 280 96 392 208 112 112 177
235 208 392 l15 78 99 0 98 0 0 -29z"/>
<path d="M1192 1420 c-48 -30 -72 -75 -72 -140 0 -100 60 -160 160 -160 100 0
160 60 160 160 0 65 -24 110 -72 140 -45 27 -131 27 -176 0z"/>
</g>
</svg>
